<svg fill="none" height="6" viewBox="0 0 10 6" width="10" xmlns="http://www.w3.org/2000/svg"><path d="m9.76268.241667c-.15548-.1559693-.36115-.241667-.57953-.241667-.00143 0-.00294 0-.00437 0-.21749.00112403-.42107.0873643-.57362.242829l-3.52072 3.531821c-.04652.04667-.12225.04675-.16885 0l-3.52185-3.532945c-.31887-.3197671-.837589-.319767-1.15894.002597-.3140492.321745-.3129287.840928.00255 1.157408l4.1819 4.19504c.15266.15639.35686.24314.57505.2443h.00436c.21838 0 .42405-.08574.57953-.24167l4.18704-4.20031c.31397-.32174.31287-.840969-.00255-1.157403z" fill="#202527"/></svg>