<svg viewBox="0 0 524 511.6" xmlns="http://www.w3.org/2000/svg"><path d="m481.4 72c-24.2-23.6-57.6-35.4-100.2-35.4-11.8 0-23.8 2-36.1 6.1s-23.7 9.6-34.3 16.6c-10.6 6.9-19.6 13.5-27.3 19.6-7.6 6.1-14.8 12.6-21.7 19.4-6.9-6.8-14.1-13.3-21.7-19.4s-16.7-12.6-27.3-19.6-22-12.5-34.3-16.6-24.3-6.1-36.1-6.1c-42.6 0-76 11.8-100.2 35.4-24.1 23.6-36.2 56.3-36.2 98.2 0 12.8 2.2 25.9 6.7 39.4s9.6 25 15.3 34.5 12.2 18.8 19.4 27.8 12.5 15.3 15.8 18.7 5.9 5.9 7.9 7.4l178.2 171.9c3.4 3.4 7.6 5.1 12.6 5.1 4.9 0 9.1-1.7 12.6-5.1l177.9-171.3c43.6-43.6 65.4-86.4 65.4-128.5-.2-41.8-12.3-74.5-36.4-98.1z" fill="currentColor" stroke="#94999e" stroke-width="36"/></svg>