<svg fill="none" height="22" viewBox="0 0 25 22" width="25" xmlns="http://www.w3.org/2000/svg"><path d="m18.0292 0c-2.4819 0-4.636 1.43314-5.7292 3.5373-1.0931-2.10416-3.24729-3.5373-5.7292-3.5373-3.58567 0-6.4930412 2.99044-6.4930412 6.67855 0 1.13065.2757592 2.19371.7577782 3.12716.018333.14141.200153.42739.511013.82659.19939.2781.41404.5437.65158.7857 2.91811 3.3794 10.30187 10.582 10.30187 10.582s7.3838-7.2026 10.3018-10.5812c.2376-.2428.4523-.5084.6516-.7858.3109-.3991.4927-.6851.5111-.82655.482-.93419.7577-1.99725.7577-3.1279 0-3.68811-2.9073-6.67855-6.493-6.67855zm4.9294 7.27101c-.0069.05735-.0168.11392-.0252.17128-.0207.13906-.0451.27657-.0757.41169-.0137.05895-.0282.11709-.0435.176-.0367.1375-.0795.27263-.1268.40623-.0161.04556-.0314.09194-.0489.1375-.068.17522-.1437.3465-.2292.51153-.0634.12099-.1398.23335-.2116.34884.0023.00238.0084.01101.0099.01335.3231.38265-9.4202 10.10267-9.9076 10.47437-.4873-.3717-10.23078-10.09172-9.90689-10.47515.00156-.00238.00763-.01101.00995-.01335-.07178-.11553-.14819-.22707-.21157-.34888-.08556-.16499-.16121-.33631-.22919-.51149-.01754-.04556-.03283-.09194-.04889-.1375-.04737-.13278-.09015-.26794-.12682-.40623-.01529-.05817-.03055-.11631-.04353-.176-.03132-.13516-.05576-.27185-.07641-.41091-.00839-.05736-.01833-.11393-.0252-.17128-.02141-.19486-.03591-.39206-.03591-.59242 0-2.82072 2.22292-5.10716 4.96526-5.10716.22383 0 .44227.02042.65848.05028.055.00785.10924.01648.16424.02593.19707.03381.39035.07703.57828.13356.01605.00472.03283.00785.04889.01257.20777.06524.40792.14695.60268.23808.03667.01729.07258.03615.10924.05423.17571.088.34606.18545.5095.29308l.00232-.02202s.21848.16659.5355.4345c.01374.01179.02904.02124.04278.03299.00914.00784.01757.01651.02596.02436.66153.56493 1.72333 1.55335 2.45133 2.65101.728-1.09766 1.7898-2.08608 2.4513-2.65023.0084-.00785.0169-.01647.026-.02436.0137-.01179.029-.0212.0428-.03299.317-.26869.5355-.43528.5355-.43528l.0023.02202c.1635-.10763.3338-.20508.5095-.29308.0367-.01808.0726-.03694.1092-.05423.1948-.09113.395-.17284.6028-.23808.016-.00468.0328-.00785.0488-.01257.188-.05657.382-.09979.5783-.13356.0542-.00941.1085-.01808.1643-.02593.2161-.02986.4346-.05028.6584-.05028 2.7424 0 4.9653 2.28644 4.9653 5.10712 0 .20036-.0138.3976-.0359.59246z" fill="#94999e"/></svg>