<svg xmlns="http://www.w3.org/2000/svg" style="border: 0 !important; clip: rect(0 0 0 0) !important; height: 1px !important; margin: -1px !important; overflow: hidden !important; padding: 0 !important; position: absolute !important; width: 1px !important;" class="root-svg-symbols-element">
    <symbol id="arrow-down" viewBox="0 0 10 6">
      <path d="m9.76268.241667c-.15548-.1559693-.36115-.241667-.57953-.241667-.00143 0-.00294 0-.00437 0-.21749.00112403-.42107.0873643-.57362.242829l-3.52072 3.531821c-.04652.04667-.12225.04675-.16885 0l-3.52185-3.532945c-.31887-.3197671-.837589-.319767-1.15894.002597-.3140492.321745-.3129287.840928.00255 1.157408l4.1819 4.19504c.15266.15639.35686.24314.57505.2443h.00436c.21838 0 .42405-.08574.57953-.24167l4.18704-4.20031c.31397-.32174.31287-.840969-.00255-1.157403z" fill="#202527"/>
    </symbol>
    <symbol id="arrow-up" viewBox="0 0 10 6">
      <path d="m.2 5.6c.2.2.4.2.6.2.2 0 .4-.1.6-.2l3.5-3.5h.2l3.5 3.5c.3.3.8.3 1.2 0 .3-.3.3-.8 0-1.2l-4.2-4.2c-.2-.1-.4-.2-.6-.2-.2 0-.4.1-.6.2l-4.2 4.2c-.3.4-.3.9 0 1.2z" fill="#202527"/>
    </symbol>
    <symbol id="close" viewBox="0 0 17 17">
      <path transform="rotate(-45 0 15.607)" fill="#94999E" d="M0 15.607H22.071V17.578H0z"/><path transform="rotate(-135 15.607 17)" fill="#94999E" d="M15.607 17H37.678V18.971H15.607z"/>
    </symbol>
    <symbol id="heart-2" viewBox="0 0 524 511.6">
      <path d="m481.4 72c-24.2-23.6-57.6-35.4-100.2-35.4-11.8 0-23.8 2-36.1 6.1s-23.7 9.6-34.3 16.6c-10.6 6.9-19.6 13.5-27.3 19.6-7.6 6.1-14.8 12.6-21.7 19.4-6.9-6.8-14.1-13.3-21.7-19.4s-16.7-12.6-27.3-19.6-22-12.5-34.3-16.6-24.3-6.1-36.1-6.1c-42.6 0-76 11.8-100.2 35.4-24.1 23.6-36.2 56.3-36.2 98.2 0 12.8 2.2 25.9 6.7 39.4s9.6 25 15.3 34.5 12.2 18.8 19.4 27.8 12.5 15.3 15.8 18.7 5.9 5.9 7.9 7.4l178.2 171.9c3.4 3.4 7.6 5.1 12.6 5.1 4.9 0 9.1-1.7 12.6-5.1l177.9-171.3c43.6-43.6 65.4-86.4 65.4-128.5-.2-41.8-12.3-74.5-36.4-98.1z" fill="currentColor" stroke="#94999e" stroke-width="36"/>
    </symbol>
    <symbol id="heart" viewBox="0 0 25 22">
      <path d="m18.0292 0c-2.4819 0-4.636 1.43314-5.7292 3.5373-1.0931-2.10416-3.24729-3.5373-5.7292-3.5373-3.58567 0-6.4930412 2.99044-6.4930412 6.67855 0 1.13065.2757592 2.19371.7577782 3.12716.018333.14141.200153.42739.511013.82659.19939.2781.41404.5437.65158.7857 2.91811 3.3794 10.30187 10.582 10.30187 10.582s7.3838-7.2026 10.3018-10.5812c.2376-.2428.4523-.5084.6516-.7858.3109-.3991.4927-.6851.5111-.82655.482-.93419.7577-1.99725.7577-3.1279 0-3.68811-2.9073-6.67855-6.493-6.67855zm4.9294 7.27101c-.0069.05735-.0168.11392-.0252.17128-.0207.13906-.0451.27657-.0757.41169-.0137.05895-.0282.11709-.0435.176-.0367.1375-.0795.27263-.1268.40623-.0161.04556-.0314.09194-.0489.1375-.068.17522-.1437.3465-.2292.51153-.0634.12099-.1398.23335-.2116.34884.0023.00238.0084.01101.0099.01335.3231.38265-9.4202 10.10267-9.9076 10.47437-.4873-.3717-10.23078-10.09172-9.90689-10.47515.00156-.00238.00763-.01101.00995-.01335-.07178-.11553-.14819-.22707-.21157-.34888-.08556-.16499-.16121-.33631-.22919-.51149-.01754-.04556-.03283-.09194-.04889-.1375-.04737-.13278-.09015-.26794-.12682-.40623-.01529-.05817-.03055-.11631-.04353-.176-.03132-.13516-.05576-.27185-.07641-.41091-.00839-.05736-.01833-.11393-.0252-.17128-.02141-.19486-.03591-.39206-.03591-.59242 0-2.82072 2.22292-5.10716 4.96526-5.10716.22383 0 .44227.02042.65848.05028.055.00785.10924.01648.16424.02593.19707.03381.39035.07703.57828.13356.01605.00472.03283.00785.04889.01257.20777.06524.40792.14695.60268.23808.03667.01729.07258.03615.10924.05423.17571.088.34606.18545.5095.29308l.00232-.02202s.21848.16659.5355.4345c.01374.01179.02904.02124.04278.03299.00914.00784.01757.01651.02596.02436.66153.56493 1.72333 1.55335 2.45133 2.65101.728-1.09766 1.7898-2.08608 2.4513-2.65023.0084-.00785.0169-.01647.026-.02436.0137-.01179.029-.0212.0428-.03299.317-.26869.5355-.43528.5355-.43528l.0023.02202c.1635-.10763.3338-.20508.5095-.29308.0367-.01808.0726-.03694.1092-.05423.1948-.09113.395-.17284.6028-.23808.016-.00468.0328-.00785.0488-.01257.188-.05657.382-.09979.5783-.13356.0542-.00941.1085-.01808.1643-.02593.2161-.02986.4346-.05028.6584-.05028 2.7424 0 4.9653 2.28644 4.9653 5.10712 0 .20036-.0138.3976-.0359.59246z" fill="#94999e"/>
    </symbol>
    <symbol id="minus" viewBox="0 0 357 357">
      <path d="M357 204H0v-51h357v51z"/>
    </symbol>
    <symbol id="plus" viewBox="0 0 357 357">
      <path d="M357 204H204v153h-51V204H0v-51h153V0h51v153h153v51z"/>
    </symbol>
    <symbol id="question" viewBox="0 0 17 17">
      <path d="m11.6049 4.86102c.1332.31297.2064.6659.2064 1.06543 0 .1798-.0133.34627-.0399.49942-.0267.15316-.0666.30632-.1199.44615-.0533.13984-.1198.27302-.1931.4062-.0732.13318-.1731.2597-.2729.38622-.1066.12652-.2464.26635-.4262.43283-.1797.16647-.3994.34626-.6591.54603-.21972.17313-.39948.32629-.54596.47278-.14648.1465-.25966.27302-.3329.38622-.07324.11321-.13316.24638-.16645.39954s-.05326.32626-.05326.51276v.1598.1598h-.69244-.69243v-.2264-.2264c0-.2597.02663-.49942.07324-.71251.0466-.21308.11984-.41285.21305-.57933.09322-.17313.22638-.34626.38617-.52605s.36619-.35958.59922-.54603c.27964-.21975.51267-.41952.69243-.59265.17977-.17313.31293-.31963.39282-.43949.07991-.11986.13981-.2597.17981-.40619.0399-.1465.0599-.30632.0599-.47279 0-.19977-.0333-.3729-.0999-.52605-.0666-.15316-.16644-.27968-.2996-.38622-.13316-.10655-.29295-.18645-.48603-.23972-.19308-.05328-.40614-.07991-.65914-.07991-.22638 0-.43943.01332-.64583.04661-.2064.0333-.40614.07991-.59922.1465s-.37951.13318-.56593.21308c-.18643.07991-.37285.15982-.55262.24638l-.29961-.61928-.29961-.61928c.47938-.26636.97207-.46612 1.48474-.5993.51266-.13318 1.04531-.19977 1.59126-.19977.4594 0 .87886.05327 1.24509.16647.3661.1132.6857.27968.9587.50608.2796.21309.486.4861.6192.79907zm-3.2491 7.04518c-.34622 0-.60588.0865-.77899.2663s-.25966.4462-.25966.7991c0 .1731.01997.3263.06658.4595s.11319.2464.19974.3462c.08655.0933.19974.1665.32624.2131s.27964.0733.44609.0733.31293-.0267.44609-.0733.23968-.1198.3329-.2197c.09321-.0999.15979-.2131.20639-.3463.04661-.1332.06658-.2797.06658-.4528 0-.1665-.01997-.3196-.06658-.4528-.0466-.1332-.11318-.2464-.19974-.3396-.08655-.0932-.19974-.1598-.32624-.2064s-.28629-.0666-.4594-.0666zm6.132-9.41576c1.538 1.53822 2.4901 3.66242 2.4901 5.9997 0 2.33726-.9521 4.46146-2.4901 5.99966-1.538 1.5383-3.6619 2.4905-5.99884 2.4905-2.34362 0-4.46087-.9522-5.99887-2.4905-1.537995-1.5382-2.49009-3.6557-2.49009-5.99966 0-2.34394.952095-4.46148 2.49009-5.9997 1.538-1.538212 3.66191-2.49044 5.99887-2.49044 2.34364 0 4.46084.952228 5.99884 2.49044zm-.9854 11.01386c1.285-1.2852 2.0773-3.0564 2.0773-5.01416 0-1.95772-.7923-3.729-2.0773-5.01417-1.285-1.28518-3.056-2.07759-5.01344-2.07759-1.95746 0-3.72849.79241-5.01348 2.07759-1.285 1.28517-2.0773 3.05645-2.0773 5.01417 0 1.95776.7923 3.72896 2.0773 5.01416 1.28499 1.2852 3.05602 2.0776 5.01348 2.0776 1.95744 0 3.72844-.7924 5.01344-2.0776z" fill="#94999e"/>
    </symbol></svg>