<svg xmlns="http://www.w3.org/2000/svg" viewBox="0 0 22.4 21"><path fill="currentColor" d="M1.4 9.5l6.3 1.9h.1c.3 0 .5-.1.5-.4s.1-.2 0-.4l-.3-.2-5.9-1.8.3-.5h.3l8.3-.7a.5.5 0 00.5-.5c0-.2 0-.3-.2-.4H11L2.6 7a1.5 1.5 0 00-1 .6l-.6.6a.8.8 0 00-.1.8z"/><path fill="currentColor" d="M22.2 16.7l-4.3-7.9 3.3-4.5c1.1-1.5 1.4-3.1.6-3.9l-.3-.2-.9-.2c-1.3 0-3.8.7-4.6 1.8l-7.5 10c-.2.3-1.6 2.1-2.7 3.9l-4 .5a1.7 1.7 0 00-1.1.6l-.5.7a1.2 1.2 0 00-.2.8 1 1 0 00.6.5l3 1.1c-.1.2 0 .3.1.5A1.4 1.4 0 005 21h.3c2.7-.4 6.1-3.7 6.6-4.3l1.3-1.8a1.1 1.1 0 01.7-.3h.2l6.1 4.4a1.2 1.2 0 001.4-.2l.5-.8a1.2 1.2 0 00.1-1.3zm-.9.6l-.5.6-6.2-4.4h-.1a1.8 1.8 0 00-2.1.6L11 16c-.4.5-3.5 3.6-5.8 3.9h-.4l.4-.6-4-1.4.4-.5h.3l4.6-.6v-.3c1.1-1.7 2.5-3.6 2.7-3.9l7.6-10c.5-.7 2.6-1.4 3.7-1.4h.5c.2.2.1 1.3-.8 2.4l-3.7 5z"/><path fill="currentColor" d="M18.1 3.9h.5a3.6 3.6 0 001.6-1.8.5.5 0 00-.1-.7.5.5 0 00-.8.2 7.4 7.4 0 01-.9 1.2l-.5.2a.6.6 0 00.2.9z"/></svg>
