<svg fill="none" height="17" viewBox="0 0 17 17" width="17" xmlns="http://www.w3.org/2000/svg"><path d="m11.6049 4.86102c.1332.31297.2064.6659.2064 1.06543 0 .1798-.0133.34627-.0399.49942-.0267.15316-.0666.30632-.1199.44615-.0533.13984-.1198.27302-.1931.4062-.0732.13318-.1731.2597-.2729.38622-.1066.12652-.2464.26635-.4262.43283-.1797.16647-.3994.34626-.6591.54603-.21972.17313-.39948.32629-.54596.47278-.14648.1465-.25966.27302-.3329.38622-.07324.11321-.13316.24638-.16645.39954s-.05326.32626-.05326.51276v.1598.1598h-.69244-.69243v-.2264-.2264c0-.2597.02663-.49942.07324-.71251.0466-.21308.11984-.41285.21305-.57933.09322-.17313.22638-.34626.38617-.52605s.36619-.35958.59922-.54603c.27964-.21975.51267-.41952.69243-.59265.17977-.17313.31293-.31963.39282-.43949.07991-.11986.13981-.2597.17981-.40619.0399-.1465.0599-.30632.0599-.47279 0-.19977-.0333-.3729-.0999-.52605-.0666-.15316-.16644-.27968-.2996-.38622-.13316-.10655-.29295-.18645-.48603-.23972-.19308-.05328-.40614-.07991-.65914-.07991-.22638 0-.43943.01332-.64583.04661-.2064.0333-.40614.07991-.59922.1465s-.37951.13318-.56593.21308c-.18643.07991-.37285.15982-.55262.24638l-.29961-.61928-.29961-.61928c.47938-.26636.97207-.46612 1.48474-.5993.51266-.13318 1.04531-.19977 1.59126-.19977.4594 0 .87886.05327 1.24509.16647.3661.1132.6857.27968.9587.50608.2796.21309.486.4861.6192.79907zm-3.2491 7.04518c-.34622 0-.60588.0865-.77899.2663s-.25966.4462-.25966.7991c0 .1731.01997.3263.06658.4595s.11319.2464.19974.3462c.08655.0933.19974.1665.32624.2131s.27964.0733.44609.0733.31293-.0267.44609-.0733.23968-.1198.3329-.2197c.09321-.0999.15979-.2131.20639-.3463.04661-.1332.06658-.2797.06658-.4528 0-.1665-.01997-.3196-.06658-.4528-.0466-.1332-.11318-.2464-.19974-.3396-.08655-.0932-.19974-.1598-.32624-.2064s-.28629-.0666-.4594-.0666zm6.132-9.41576c1.538 1.53822 2.4901 3.66242 2.4901 5.9997 0 2.33726-.9521 4.46146-2.4901 5.99966-1.538 1.5383-3.6619 2.4905-5.99884 2.4905-2.34362 0-4.46087-.9522-5.99887-2.4905-1.537995-1.5382-2.49009-3.6557-2.49009-5.99966 0-2.34394.952095-4.46148 2.49009-5.9997 1.538-1.538212 3.66191-2.49044 5.99887-2.49044 2.34364 0 4.46084.952228 5.99884 2.49044zm-.9854 11.01386c1.285-1.2852 2.0773-3.0564 2.0773-5.01416 0-1.95772-.7923-3.729-2.0773-5.01417-1.285-1.28518-3.056-2.07759-5.01344-2.07759-1.95746 0-3.72849.79241-5.01348 2.07759-1.285 1.28517-2.0773 3.05645-2.0773 5.01417 0 1.95776.7923 3.72896 2.0773 5.01416 1.28499 1.2852 3.05602 2.0776 5.01348 2.0776 1.95744 0 3.72844-.7924 5.01344-2.0776z" fill="#94999e"/></svg>